ply
format ascii 1.0
comment Created by Blender 2.78 (sub 0) - www.blender.org, source file: 'roundedCornerNWFaces.blend'
element vertex 8
property float x
property float y
property float z
property float nx
property float ny
property float nz
property float s
property float t
property uchar red
property uchar green
property uchar blue
element face 4
property list uchar uint vertex_indices
end_header
-0.414214 0.414214 0.000000 0.000000 0.000000 1.000000 0.165951 0.224183 0 0 0
1.000000 -1.000000 0.000000 0.000000 0.000000 1.000000 0.706886 0.765118 0 0 0
0.234633 0.847759 0.000000 0.000000 0.000000 1.000000 0.000121 0.472366 0 0 0
1.000000 1.000000 0.000000 0.000000 -0.000000 1.000000 0.707127 0.058353 0 0 0
0.234633 0.847759 0.000000 0.000000 -0.000000 1.000000 0.999879 0.000121 0 0 0
1.000000 -1.000000 0.000000 0.000000 -0.000000 1.000000 0.999879 0.765118 0 0 0
-0.847759 -0.234633 0.000000 0.000000 -0.000000 1.000000 0.414134 0.058353 0 0 0
-1.000000 -1.000000 0.000000 0.000000 0.000000 1.000000 0.706886 0.000121 0 0 0
3 0 1 2
3 3 4 5
3 0 6 1
3 7 1 6
