ply
format ascii 1.0
comment Created by Blender 2.78 (sub 0) - www.blender.org, source file: 'addButton.blend'
element vertex 12
property float x
property float y
property float z
property float nx
property float ny
property float nz
property uchar red
property uchar green
property uchar blue
element face 10
property list uchar uint vertex_indices
end_header
0.150000 -0.150000 0.000000 -0.000000 0.000000 1.000000 246 255 246
0.150000 0.150000 0.000000 -0.000000 0.000000 1.000000 248 255 248
-0.150000 0.150000 0.000000 -0.000000 0.000000 1.000000 246 255 246
-0.150000 -0.600000 0.000000 0.000000 -0.000000 1.000000 251 255 251
0.150000 -0.600000 0.000000 0.000000 -0.000000 1.000000 246 246 236
-0.150000 -0.150000 0.000000 -0.000000 0.000000 1.000000 246 255 246
-0.600000 0.150000 0.000000 -0.000000 0.000000 1.000000 249 255 249
-0.600000 -0.150000 0.000000 -0.000000 0.000000 1.000000 247 255 247
0.600000 0.150000 0.000000 0.000000 -0.000000 1.000000 252 255 252
0.600000 -0.150000 0.000000 0.000000 -0.000000 1.000000 247 255 247
-0.150000 0.600000 0.000000 0.000000 0.000000 1.000000 247 255 247
0.150000 0.599999 0.000000 0.000000 0.000000 1.000000 247 255 247
3 0 1 2
3 0 3 4
3 5 6 7
3 0 5 3
3 8 0 9
3 10 1 11
3 1 0 8
3 0 2 5
3 2 1 10
3 5 2 6
