ply
format ascii 1.0
comment Created by Blender 2.78 (sub 0) - www.blender.org, source file: 'refreshButton.blend'
element vertex 19
property float x
property float y
property float z
property float nx
property float ny
property float nz
property uchar red
property uchar green
property uchar blue
element face 17
property list uchar uint vertex_indices
end_header
-0.392049 0.409604 0.000000 -0.000000 -0.000000 1.000000 255 255 255
0.000406 0.334877 0.000000 -0.000000 -0.000000 1.000000 248 255 248
0.000406 0.573933 0.000000 -0.000000 -0.000000 1.000000 252 255 252
-0.332935 -0.003844 -0.000000 -0.000000 -0.000000 1.000000 255 255 255
-0.404492 -0.404636 -0.000000 -0.000000 -0.000000 1.000000 255 255 255
-0.237001 -0.245843 -0.000000 -0.000000 -0.000000 1.000000 255 255 255
0.409747 -0.417078 -0.000000 -0.000000 -0.000000 1.000000 255 255 255
0.347236 -0.014238 0.000000 -0.000000 -0.000000 1.000000 255 255 255
0.243953 -0.253192 -0.000000 -0.000000 -0.000000 1.000000 255 255 255
-0.566905 0.005061 -0.000000 -0.000000 -0.000000 1.000000 255 255 255
0.000051 -0.579491 -0.000000 -0.000000 -0.000000 1.000000 255 255 255
-0.229651 0.235111 0.000000 -0.000000 -0.000000 1.000000 255 255 255
0.361141 0.429682 0.000000 -0.000000 -0.000000 1.000000 251 255 251
0.001954 -0.349127 -0.000000 -0.000000 -0.000000 1.000000 255 255 255
0.457350 0.322148 0.000000 -0.000000 -0.000000 1.000000 255 255 255
0.280486 0.214036 0.000000 -0.000000 -0.000000 1.000000 255 255 255
0.584603 -0.012535 0.000000 -0.000000 -0.000000 1.000000 255 255 255
0.000406 0.774289 0.000000 -0.000000 -0.000000 1.000000 253 255 253
0.000406 0.123005 0.000000 -0.000000 0.000000 1.000000 247 255 247
3 0 1 2
3 3 4 5
3 6 7 8
3 3 9 4
3 10 5 4
3 0 11 1
3 2 1 12
3 10 13 5
3 9 3 11
3 10 6 8
3 9 11 0
3 10 8 13
3 14 15 7
3 6 16 7
3 14 7 16
3 2 12 17
3 12 1 18
