ply
format ascii 1.0
element vertex 5
property float x
property float y
property float z
property float nx
property float ny
property float nz
property uchar red
property uchar green
property uchar blue
element edge 4
property int vertex1
property int vertex2
end_header
-1.000000 1.000000 0.000000 0.000000 0.000000 1.000000 255 255 255
-0.847759 0.234633 0.000000 0.000000 0.000000 1.000000 255 255 255
-0.414214 -0.414214 0.000000 0.000000 0.000000 1.000000 255 255 255
0.234633 -0.847759 0.000000 0.000000 0.000000 1.000000 255 255 255
1.000000 -1.000000 0.000000 0.000000 0.000000 1.000000 255 255 255
0 1
1 2
2 3
3 4