ply
format ascii 1.0
comment Created by Blender 2.78 (sub 0) - www.blender.org, source file: 'roundedCornerNWFaces.blend'
element vertex 6
property float x
property float y
property float z
property float nx
property float ny
property float nz
element face 4
property list uchar uint vertex_indices
end_header
0.292893 0.707107 0.000000 0.000000 0.000000 1.000000
1.000000 0.000000 0.000000 0.000000 0.000000 1.000000
0.617317 0.923880 0.000000 0.000000 0.000000 1.000000
1.000000 1.000000 0.000000 0.000000 -0.000000 1.000000
0.076120 0.382683 0.000000 0.000000 -0.000000 1.000000
0.000000 -0.000000 0.000000 0.000000 0.000000 1.000000
3 0 1 2
3 3 2 1
3 0 4 1
3 5 1 4
