ply
format ascii 1.0
element vertex 9
property float x
property float y
property float z
property float nx
property float ny
property float nz
property uchar red
property uchar green
property uchar blue
element edge 8
property int vertex1
property int vertex2
property uchar red
property uchar green
property uchar blue
end_header
0.000000 0.000000 -2.000000 -0.000000 0.000000 1.000000 255 255 255
-0.390181 0.000000 -1.961571 -0.000000 0.000000 1.000000 255 255 255
-0.765367 0.000000 -1.847759 -0.000000 0.000000 1.000000 255 255 255
-1.111140 0.000000 -1.662939 -0.000000 0.000000 1.000000 255 255 255
-1.414214 0.000000 -1.414214 -0.000000 0.000000 1.000000 255 255 255
-1.662939 0.000000 -1.111140 -0.000000 0.000000 1.000000 255 255 255
-1.847759 0.000000 -0.765367 -0.000000 0.000000 1.000000 255 255 255
-1.961571 0.000000 -0.390181 -0.000000 0.000000 1.000000 255 255 255
-2.000000 0.000000 -0.000000 -0.000000 0.000000 1.000000 255 255 255
2 1 255 255 255
3 2 255 255 255
4 3 255 255 255
5 4 255 255 255
6 5 255 255 255
7 6 255 255 255
8 7 255 255 255
9 8 255 255 255
