ply
format ascii 1.0
comment Created by Blender 2.78 (sub 0) - www.blender.org, source file: 'orthoPlane.blend'
element vertex 4
property float x
property float y
property float z
property float nx
property float ny
property float nz
property float s
property float t
element face 2
property list uchar uint vertex_indices
end_header
0.000000 0.000000 0.000000 0.032548 -0.012314 0.999394 0.000100 0.000100
0.999368 1.000427 -0.020220 0.032548 -0.012314 0.999394 0.999900 0.999900
-0.000102 0.999924 0.012324 0.032548 -0.012314 0.999394 0.000100 0.999900
0.999470 0.000503 -0.032544 0.032548 -0.012314 0.999394 0.999900 0.000100
3 0 1 2
3 0 3 1
